<svg width="120" height="120" viewBox="0 0 120 120" fill="none" xmlns="http://www.w3.org/2000/svg">
  <!-- Background Circle -->
  <circle cx="60" cy="60" r="60" fill="#003366"/>
  
  <!-- Outer Ring -->
  <circle cx="60" cy="60" r="50" stroke="#FFB300" stroke-width="2" fill="none"/>
  
  <!-- Book/Knowledge Symbol -->
  <rect x="30" y="40" width="60" height="40" rx="4" fill="#FFB300"/>
  <rect x="35" y="45" width="50" height="30" rx="2" fill="#003366"/>
  
  <!-- Book Pages -->
  <line x1="45" y1="50" x2="75" y2="50" stroke="#FFB300" stroke-width="1"/>
  <line x1="45" y1="55" x2="75" y2="55" stroke="#FFB300" stroke-width="1"/>
  <line x1="45" y1="60" x2="75" y2="60" stroke="#FFB300" stroke-width="1"/>
  <line x1="45" y1="65" x2="65" y2="65" stroke="#FFB300" stroke-width="1"/>
  
  <!-- Chat Bubble -->
  <circle cx="80" cy="35" r="15" fill="#2563EB"/>
  <path d="M70 40 L75 45 L80 40" fill="#2563EB"/>
  
  <!-- Chat Dots -->
  <circle cx="75" cy="32" r="2" fill="white"/>
  <circle cx="80" cy="32" r="2" fill="white"/>
  <circle cx="85" cy="32" r="2" fill="white"/>
  
  <!-- Graduation Cap -->
  <polygon points="40,25 60,20 80,25 75,30 45,30" fill="#FFB300"/>
  <rect x="58" y="20" width="4" height="8" fill="#FFB300"/>
  <circle cx="62" cy="20" r="2" fill="#003366"/>
  
  <!-- AI/Robot Elements -->
  <rect x="15" y="70" width="20" height="25" rx="10" fill="#2563EB"/>
  <circle cx="20" cy="77" r="2" fill="white"/>
  <circle cx="30" cy="77" r="2" fill="white"/>
  <rect x="22" y="82" width="6" height="3" rx="1" fill="white"/>
  
  <!-- University Building Silhouette -->
  <rect x="85" y="75" width="25" height="20" fill="#FFB300"/>
  <triangle points="85,75 97.5,65 110,75" fill="#003366"/>
  <rect x="92" y="80" width="3" height="8" fill="#003366"/>
  <rect x="100" y="80" width="3" height="8" fill="#003366"/>
  
  <!-- Connect Lines (representing AI connections) -->
  <line x1="35" y1="82" x2="55" y2="70" stroke="#2563EB" stroke-width="1" opacity="0.5"/>
  <line x1="75" y1="40" x2="85" y2="75" stroke="#2563EB" stroke-width="1" opacity="0.5"/>
  <line x1="60" y1="30" x2="60" y2="40" stroke="#FFB300" stroke-width="1" opacity="0.7"/>
</svg>
